<svg width="200" height="200" viewBox="0 0 200 200" fill="none" xmlns="http://www.w3.org/2000/svg">
<circle cx="100" cy="100" r="97.5" stroke="#AAAAAA" stroke-width="5"/>
<path d="M42 162.354V175H157.251V162.354C157.251 142.955 128.521 133.096 99.6191 133.133C70.9139 133.158 42 141.801 42 162.354Z" fill="#00BFA5"/>
<path d="M99.0915 127.89H87.9434V139.665C87.9434 144.993 92.4861 149.315 98.0847 149.315H100.111C105.709 149.315 110.252 144.993 110.252 139.665V127.89H99.0915Z" fill="#DBA689"/>
<path opacity="0.54" d="M65.2178 163.852H68.9011V174.239H65.2178V163.852Z" fill="black"/>
<path opacity="0.54" d="M129.417 163.852H133.1V174.239H129.417V163.852Z" fill="black"/>
<path d="M138.613 80.4862C138.613 80.4862 145.845 81.7386 145.845 89.5349C145.845 96.4104 140.566 99.1238 135.286 99.1238V80.4862H138.613Z" fill="#DBA689"/>
<path d="M59.6915 80.4862C59.6915 80.4862 52.46 81.7386 52.46 89.5349C52.46 96.4104 57.7394 99.1238 63.0188 99.1238V80.4862H59.6915Z" fill="#DBA689"/>
<path d="M99.1526 29.4603C67.9673 29.4603 59.8149 53.635 59.8149 87.5951C59.8149 122.808 82.4427 131.918 99.1526 131.918C115.617 131.918 138.49 123.078 138.49 87.5951C138.503 53.6228 130.338 29.4603 99.1526 29.4603Z" fill="#FADCBC"/>
<path d="M85.522 90.3598C85.522 93.8713 83.1769 96.7074 80.2671 96.7074C77.3696 96.7074 75 93.859 75 90.3598C75 86.8484 77.3573 84 80.2671 84C83.1769 84 85.522 86.8484 85.522 90.3598Z" fill="#444444"/>
<path d="M112.106 90.7381C112.106 94.2495 114.451 97.0857 117.373 97.0857C120.271 97.0857 122.628 94.2373 122.628 90.7381C122.628 87.2267 120.271 84.3783 117.373 84.3783C114.451 84.3783 112.106 87.2267 112.106 90.7381Z" fill="#444444"/>
<path d="M110.548 112.187H99.1661H87.7847C86.4833 112.187 85.9185 113.059 86.778 114.385C87.9812 116.227 92.4748 119.763 99.1661 119.763C105.857 119.763 110.351 116.227 111.554 114.385C112.414 113.071 111.849 112.187 110.548 112.187Z" fill="#513F35"/>
<path d="M104.652 102.512C102.712 103.065 100.699 103.323 99.1517 103.323C97.6047 103.323 95.5912 103.053 93.6513 102.512C92.8287 102.279 92.4972 103.065 92.7919 103.581C93.4057 104.661 95.8858 106.846 99.1517 106.846C102.418 106.846 104.898 104.661 105.512 103.581C105.806 103.065 105.487 102.279 104.652 102.512Z" fill="#DBA689"/>
<path d="M100.097 25.0157C100.097 25.0157 99.4836 24.9912 99.2258 25.0034C98.9679 25.0034 98.3541 25.0157 98.3541 25.0157C64.7009 25.6664 54.5596 45.9123 54.5596 59.9457C54.5596 73.5862 54.5718 83.6171 54.5718 83.6171C54.5718 83.6171 55.1121 83.0646 56.0943 82.2911C57.1502 81.4685 58.3165 81.0142 58.3165 81.0142L60.0109 92.4079L71.2204 68.9821C71.294 68.8348 71.4414 68.7488 71.601 68.7734L78.2432 69.51C84.9223 70.2467 91.6382 70.615 98.3418 70.6273V70.6396C98.6364 70.6396 98.9188 70.6273 99.2135 70.6273C99.5082 70.6273 99.7905 70.6396 100.085 70.6396V70.6273C106.789 70.6027 113.505 70.2467 120.184 69.51L126.826 68.7734C126.986 68.7611 127.133 68.847 127.207 68.9821L138.416 92.4079L140.11 81.0142C140.11 81.0142 141.277 81.4808 142.333 82.2911C143.327 83.0646 143.855 83.6171 143.855 83.6171C143.855 83.6171 143.867 73.5985 143.867 59.9457C143.892 45.9123 133.751 25.6664 100.097 25.0157Z" fill="#F9E073"/>
</svg>
